<?xml version="1.0" encoding="UTF-8" standalone="no"?>
<svg
   xmlns:dc="http://purl.org/dc/elements/1.1/"
   xmlns:cc="http://creativecommons.org/ns#"
   xmlns:rdf="http://www.w3.org/1999/02/22-rdf-syntax-ns#"
   xmlns:svg="http://www.w3.org/2000/svg"
   xmlns="http://www.w3.org/2000/svg"
   xmlns:sodipodi="http://sodipodi.sourceforge.net/DTD/sodipodi-0.dtd"
   xmlns:inkscape="http://www.inkscape.org/namespaces/inkscape"
   id="Layer_4"
   data-name="Layer 4"
   viewBox="0 0 2491.62 1584.86"
   version="1.1"
   sodipodi:docname="try-before-you-buy.svg"
   inkscape:version="0.92.4 (5da689c313, 2019-01-14)">
  <metadata
     id="metadata198">
    <rdf:RDF>
      <cc:Work
         rdf:about="">
        <dc:format>image/svg+xml</dc:format>
        <dc:type
           rdf:resource="http://purl.org/dc/dcmitype/StillImage" />
      </cc:Work>
    </rdf:RDF>
  </metadata>
  <sodipodi:namedview
     pagecolor="#ffffff"
     bordercolor="#666666"
     borderopacity="1"
     objecttolerance="10"
     gridtolerance="10"
     guidetolerance="10"
     inkscape:pageopacity="0"
     inkscape:pageshadow="2"
     inkscape:window-width="1280"
     inkscape:window-height="657"
     id="namedview196"
     showgrid="false"
     inkscape:zoom="0.15395682"
     inkscape:cx="1058.055"
     inkscape:cy="772.52168"
     inkscape:window-x="-4"
     inkscape:window-y="-4"
     inkscape:window-maximized="1"
     inkscape:current-layer="Layer_4" />
  <defs
     id="defs107">
    <style
       id="style105">.cls-1{fill:#fff;}.cls-2{fill:#ccebf5;}.cls-3{fill:#444023;}.cls-4{fill:#f9b5b3;}.cls-5{fill:#089ed0;}.cls-6{opacity:0.1;}.cls-7{fill:#f4f4f4;}.cls-8{fill:#353635;}.cls-9{fill:#fffefe;}</style>
  </defs>
  <title
     id="title109">icon_home</title>
  <path
     class="cls-1"
     d="M851,721.08v638.1h981.14V721.08H851Zm902,598.12h-385V1142.08h385V1319.2Zm0-238.29H905V806.24h848v274.67Z"
     transform="translate(-164.71 -41.08)"
     id="path111" />
  <path
     class="cls-2"
     d="M699.63,1362.14c9.28,18.28,15.69,40.47,23.65,59h1335.1l10.78-27.14h76.73l-5.41-31.82H699.63Z"
     transform="translate(-164.71 -41.08)"
     id="path113" />
  <polygon
     class="cls-3"
     points="1884.73 1410.45 1132.63 1410.45 1132.63 1405.03 1881.04 1405.03 1902.61 1350.17 1978.48 1350.17 1978.48 1322.96 425.69 1322.96 425.69 1350.17 538.85 1350.17 560.42 1405.03 867.06 1405.03 867.06 1410.45 556.72 1410.45 535.16 1355.59 420.26 1355.59 420.26 1317.54 1983.9 1317.54 1983.9 1355.59 1906.3 1355.59 1884.73 1410.45"
     id="polygon115" />
  <ellipse
     class="cls-2"
     cx="1635.33"
     cy="128.43"
     rx="45.48"
     ry="81.69"
     transform="translate(753.2 1562.51) rotate(-68.56)"
     id="ellipse117" />
  <path
     class="cls-3"
     d="M1656.41,177.05c-18.34,0-39-3.9-59.76-12l2-5c51.52,20.23,102.4,13.86,113.42-14.19s-21.92-67.36-73.44-87.59-102.4-13.87-113.42,14.19c-5.81,14.78.6,33.54,17.59,51.47l-3.94,3.73c-18.49-19.52-25.3-40.35-18.7-57.17,12.12-30.84,66.14-38.58,120.45-17.26s88.62,63.78,76.5,94.62C1709.61,166.82,1686.1,177.05,1656.41,177.05Z"
     transform="translate(-164.71 -41.08)"
     id="path119" />
  <rect
     class="cls-3"
     x="1661.88"
     y="991.56"
     width="5.42"
     height="330.29"
     id="rect121" />
  <rect
     class="cls-3"
     x="744.34003"
     y="1117.5601"
     width="590.6275"
     height="5.4200001"
     id="rect123"
     style="fill:#444023;stroke-width:1.43320286" />
  <rect
     class="cls-3"
     x="744.34003"
     y="1175.87"
     width="829.06396"
     height="5.4200001"
     id="rect125"
     style="fill:#444023;stroke-width:1.43320286" />
  <rect
     class="cls-3"
     x="134.9"
     y="1135.29"
     width="55.99"
     height="5.42"
     id="rect131"
     style="stroke:#ffd42a;fill:#ffe680" />
  <rect
     class="cls-3"
     x="212.65"
     y="1135.29"
     width="55.99"
     height="5.42"
     id="rect133"
     style="stroke:#ffd42a;fill:#ffe680" />
  <rect
     class="cls-3"
     x="199.06"
     y="1071.12"
     width="5.42"
     height="55.99"
     id="rect135"
     style="stroke:#ffd42a;fill:#ffe680" />
  <rect
     class="cls-3"
     x="199.06"
     y="1148.88"
     width="5.42"
     height="55.99"
     id="rect137"
     style="stroke:#ffd42a;fill:#ffe680" />
  <rect
     class="cls-3"
     x="293.28"
     y="1030.64"
     width="23.44"
     height="5.42"
     id="rect139"
     style="stroke:#ffd42a;fill:#ffe680" />
  <rect
     class="cls-3"
     x="325.83"
     y="1030.64"
     width="23.44"
     height="5.42"
     id="rect141"
     style="stroke:#ffd42a;fill:#ffe680" />
  <rect
     class="cls-3"
     x="318.56"
     y="1005.36"
     width="5.42"
     height="23.43"
     id="rect143"
     style="stroke:#ffd42a;fill:#ffe680" />
  <rect
     class="cls-3"
     x="318.56"
     y="1037.91"
     width="5.42"
     height="23.44"
     id="rect145"
     style="stroke:#ffd42a;fill:#ffe680" />
  <rect
     class="cls-3"
     x="1213.03"
     y="1405.03"
     width="1113.89"
     height="5.42"
     id="rect147" />
  <rect
     class="cls-3"
     y="1405.03"
     width="733.04"
     height="5.42"
     id="rect149" />
  <path
     class="cls-5"
     d="M1986.42,776.37l-0.51-5.39c253.8-24.14,385.14-114.16,450.64-185.44,70.75-77,81.86-149,82-149.7l5.36,0.78c-0.11.73-11.47,74.37-83.34,152.59C2398.41,635,2344,673.54,2278.87,703.63,2197.57,741.17,2099.17,765.64,1986.42,776.37Z"
     transform="translate(-164.71 -41.08)"
     id="path155" />
  <path
     class="cls-5"
     d="M1310.05,1625.94c-44.81-176.2-245.17-277.18-438.93-374.84C694.4,1162,527.49,1077.91,504.26,944.45c-9-51.85,3-93.77,35.66-124.57,79.42-74.85,257.14-62,312.89-48.86l-1.24,5.28c-55-13-230.13-25.8-307.93,47.52-31.28,29.47-42.73,69.74-34,119.69,22.76,130.77,188.49,214.3,364,302.74,194.84,98.2,396.32,199.75,441.74,378.34Z"
     id="path157"
     transform="translate(-164.71 -41.08)" />
  <polygon
     class="cls-3"
     points="1202.56,1283.44 1202.56,1096.11 1491.21,1096.11 1491.21,1101.53 1207.98,1101.53 1207.98,1278.02 1586.82,1278.02 1586.82,1109.61 1592.24,1109.61 1592.24,1283.44 "
     id="polygon193"
     transform="translate(0,-279.2991)"
     style="fill:#444023" />
  <g
     class="cls-6"
     id="g161">
    <path
       d="M934.32,865.72c41.79,23,85.37,42.42,129,61.56,170.1,74.63,339.84,149.82,511,222,84.9,35.81,170.07,71,255,106.76V718.71H852.19V812.9C879,831.28,905.61,849.94,934.32,865.72Z"
       transform="translate(-164.71 -41.08)"
       id="path159" />
  </g>
  <path
     class="cls-2"
     d="M1981.31,1088.71c126.28-329.51-36.51-699.83-365.6-829.1a641,641,0,0,0-270.94-43.68c31.3,5.79,58.44,19.75,78.31,42.41,65.83,75.08,27.21,216.61-86.27,316.12S1078,693.77,1012.12,618.69s-27.21-216.61,86.27-316.12a398.58,398.58,0,0,1,81.17-55.35c-174,57.3-322.38,188.12-396,371Z"
     transform="translate(-164.71 -41.08)"
     id="path163" />
  <path
     class="cls-2"
     d="M1605.19,231.18l2.19,6.58-27.26-10.71-9.42-81.39,63.12,24.79-6.09,3.33A48.11,48.11,0,0,0,1605.19,231.18Z"
     transform="translate(-164.71 -41.08)"
     id="path165" />
  <path
     class="cls-3"
     d="M1937.17,1077.92l-2.47-1-1200-471.34,0.91-2.49c1.75-4.78,3.55-9.55,5.42-14.32C800,438.75,920.07,315,1088.27,231l2.42,4.85C923.71,319.26,804.56,442,746.11,590.79q-2.3,5.85-4.46,11.72l1192.56,468.43q2.4-5.77,4.71-11.62c129.17-328.86-33.28-701.5-362.14-830.67a636.64,636.64,0,0,0-246.67-44.41l-0.11-5.42a642.71,642.71,0,0,1,248.76,44.78c160.65,63.1,287.12,185,356.1,343.21s72.21,333.83,9.11,494.48q-2.81,7.15-5.78,14.18Z"
     transform="translate(-164.71 -41.08)"
     id="path167" />
  <rect
     class="cls-7"
     x="115.50464"
     y="1335.9633"
     width="240.67999"
     height="17.290001"
     transform="rotate(-58.097461)"
     id="rect173"
     style="fill:#f4f4f4" />
  <path
     class="cls-3"
     d="M1607.57,240c-8.46-16.66-10.09-31.61-4.85-44.41,7.95-19.42,28.69-26.57,29.56-26.87l1.73,5.14c-0.19.07-19.32,6.71-26.3,23.83-4.6,11.28-3,24.69,4.69,39.86Z"
     transform="translate(-164.71 -41.08)"
     id="path181" />
  <path
     class="cls-3"
     d="M1541,213.87l-1.87-5.09c16-5.88,26.28-14.65,30.58-26.06,6.53-17.34-3-35.13-3.06-35.31l4.76-2.59c0.44,0.81,10.77,20.17,3.37,39.81C1569.92,197.58,1558.55,207.42,1541,213.87Z"
     transform="translate(-164.71 -41.08)"
     id="path183" />
  <polygon
     class="cls-3"
     points="690.19 1321.85 684.77 1321.85 684.77 674.91 867.06 674.91 867.06 680.33 690.19 680.33 690.19 1321.85"
     id="polygon185" />
  <path
     class="cls-9"
     d="M2003.63,569.31c-44.76-157-143.11-228.13-144.09-228.82l3.13-4.43c1,0.71,100.86,72.83,146.17,231.76Z"
     transform="translate(-164.71 -41.08)"
     id="path189"
     style="fill:#ffdd55" />
  <path
     class="cls-9"
     d="M2037.18,471.5c-15.22-67.22-52.4-99.66-52.77-100l3.52-4.12c1.58,1.35,38.92,33.94,54.53,102.9Z"
     transform="translate(-164.71 -41.08)"
     id="path191"
     style="fill:#ffdd55" />
  <rect
     style="fill:#f4f4f4"
     id="rect200"
     transform="rotate(-58.097461)"
     height="17.290001"
     width="240.67999"
     y="1393.8074"
     x="120.90884"
     class="cls-7"
     inkscape:transform-center-x="13.859046" />
  <g
     id="g1017"
     transform="matrix(1.3001738,0,0,1.3001738,2282.3683,-361.22784)">
    <g
       id="g1021"
       transform="translate(24.727638,15.896339)">
      <g
         id="g1025"
         transform="matrix(0.64805966,0.61707206,-0.55831681,0.71625914,-334.98201,457.92704)">
        <path
           sodipodi:nodetypes="cssc"
           inkscape:connector-curvature="0"
           id="path1013"
           d="m -242.16904,428.55234 c -63.43972,-28.14493 -101.18324,65.90259 -20.82144,63.61825 33.07067,-0.94006 55.4837,47.02807 20.287,76.4439 -21.05849,17.59974 -51.83892,14.32803 -69.29033,1.21122"
           style="fill:none;fill-opacity:1;stroke:#f4f4f4;stroke-width:10.2301712;stroke-linecap:round;stroke-linejoin:miter;stroke-miterlimit:4;stroke-dasharray:none;stroke-opacity:1" />
        <path
           style="fill:none;fill-opacity:1;stroke:#353635;stroke-width:10.2301712;stroke-linecap:round;stroke-linejoin:miter;stroke-miterlimit:4;stroke-dasharray:none;stroke-opacity:1"
           d="m -232.42224,430.42574 c -63.43972,-28.14493 -101.18324,65.90259 -20.82144,63.61825 33.07067,-0.94006 55.4837,47.02807 20.287,76.4439 -21.05849,17.59974 -51.83892,14.32803 -69.29033,1.21122"
           id="path1011"
           inkscape:connector-curvature="0"
           sodipodi:nodetypes="cssc" />
      </g>
    </g>
  </g>
  <rect
     class="cls-8"
     x="120.2674"
     y="1351.7705"
     width="240.67999"
     height="8.1300001"
     transform="rotate(-58.107461)"
     id="rect179"
     style="fill:#353635" />
  <rect
     style="fill:#353635"
     id="rect202"
     transform="rotate(-58.107461)"
     height="8.1300001"
     width="240.67999"
     y="1385.8793"
     x="129.73624"
     class="cls-8"
     inkscape:transform-center-x="1.7212974"
     inkscape:transform-center-y="1.6668978" />
  <rect
     id="rect1027"
     height="5.4200001"
     width="287.54001"
     y="990.90118"
     x="744.34003"
     class="cls-3"
     style="fill:#444023" />
  <rect
     id="rect1029"
     height="5.4200001"
     width="829.06396"
     y="1049.2111"
     x="744.34003"
     class="cls-3"
     style="fill:#444023;stroke-width:1.43320286" />
  <rect
     style="fill:#444023"
     class="cls-3"
     x="744.34003"
     y="864.24231"
     width="287.54001"
     height="5.4200001"
     id="rect1031" />
  <rect
     style="fill:#444023"
     class="cls-3"
     x="744.34003"
     y="922.55219"
     width="403.62"
     height="5.4200001"
     id="rect1033" />
  <g
     id="g1045"
     transform="translate(1302.3132,526.12156)">
    <path
       style="fill:#5fd38d;stroke:none;stroke-width:4.49324131;stroke-linecap:round;stroke-linejoin:round;stroke-miterlimit:4;stroke-dasharray:none;stroke-opacity:1"
       d="m -207.00717,688.92792 42.00405,72.75315 126.277835,-126.27784 -34.030539,-34.03053 -84.636716,84.63672 -18.27902,-31.6602 z"
       id="path1041"
       inkscape:connector-curvature="0" />
    <path
       inkscape:connector-curvature="0"
       id="path1039"
       d="m -206.88185,689.59688 46.74137,80.95843 140.51976,-140.51976 -37.868586,-37.86858 -94.182254,94.18225 -20.34057,-35.23091 z"
       style="fill:none;stroke:#000000;stroke-width:5;stroke-linecap:round;stroke-linejoin:round;stroke-miterlimit:4;stroke-dasharray:none;stroke-opacity:1" />
  </g>
</svg>
